<svg xmlns="http://www.w3.org/2000/svg" width="424" height="424" viewBox="0 0 424 424" version="1.1"><path d="M 246.932 102.631 C 238.747 118.318, 237.416 122, 239.932 122 C 240.380 122, 244.913 114.237, 250.005 104.750 C 255.098 95.263, 259.767 87.169, 260.382 86.765 C 261.630 85.945, 261.461 85.845, 258.244 85.509 C 256.272 85.302, 254.850 87.455, 246.932 102.631 M 150.315 107.007 C 149.114 107.491, 147.651 108.783, 147.065 109.878 C 145.719 112.394, 145.673 116.320, 147 115.500 C 147.566 115.150, 148 115.977, 148 117.402 C 148 120.030, 151.678 124.317, 153.151 123.406 C 153.618 123.118, 154 123.306, 154 123.824 C 154 125.433, 157.576 125.798, 160.656 124.503 C 164.679 122.811, 167.292 118.608, 166.517 115.076 C 165.716 111.429, 160.642 106.540, 158.508 107.359 C 157.571 107.718, 157.152 107.563, 157.507 106.989 C 158.258 105.774, 153.344 105.787, 150.315 107.007 M 87.667 119.667 C 86.764 120.569, 86.821 122.037, 87.750 121.845 C 88.162 121.760, 91.875 123.275, 96 125.211 C 104.235 129.077, 114.924 132.162, 128 134.445 C 132.675 135.262, 139.084 136.784, 142.241 137.828 C 146.774 139.326, 148.200 139.464, 149.016 138.481 C 149.790 137.549, 149.034 136.830, 146 135.617 C 140.430 133.388, 117.883 128.995, 114.918 129.561 C 113.588 129.814, 113.092 129.745, 113.816 129.406 C 114.540 129.067, 111.267 127.490, 106.542 125.903 C 101.818 124.315, 96.181 122.113, 94.016 121.008 C 89.789 118.852, 88.710 118.624, 87.667 119.667 M 163.309 124.636 C 162.603 126.476, 163.826 128.857, 166.269 130.398 C 168.922 132.071, 169.461 130.270, 167.433 126.506 C 165.356 122.648, 164.262 122.153, 163.309 124.636 M 296 128.121 C 290.256 130.404, 286.128 136.725, 289.158 138.597 C 289.948 139.086, 290.139 138.640, 289.760 137.191 C 289.419 135.888, 289.648 135.152, 290.353 135.284 C 290.984 135.403, 291.350 134.825, 291.167 134 C 290.983 133.175, 291.156 132.823, 291.551 133.217 C 291.945 133.612, 293.393 133.049, 294.769 131.967 C 296.403 130.682, 298.809 130, 301.712 130 C 309.697 130, 314.186 137.108, 310.839 144.453 C 310.201 145.854, 309.076 147, 308.339 147 C 307.603 147, 307 147.415, 307 147.922 C 307 148.430, 305.421 149.366, 303.491 150.003 C 301.467 150.671, 300.258 151.609, 300.635 152.219 C 301.075 152.931, 300.016 153.074, 297.395 152.658 C 294.049 152.126, 293.818 152.199, 295.757 153.176 C 301.125 155.878, 314 147.680, 314 141.559 C 314 140.029, 314.428 139.147, 315 139.500 C 318.156 141.450, 313.636 131.058, 310.401 128.926 C 307.231 126.836, 300.218 126.444, 296 128.121 M 198.071 129.935 C 196.859 130.702, 197.049 132.389, 199.327 141.081 C 200.803 146.713, 201.843 151.490, 201.638 151.696 C 201.432 151.901, 199.571 147.600, 197.503 142.137 C 194.084 133.111, 193.522 132.229, 191.338 132.468 C 190.016 132.613, 188.777 132.905, 188.585 133.116 C 188.305 133.423, 198.594 155.816, 199.448 156.757 C 199.576 156.898, 201.102 156.730, 202.840 156.382 C 204.777 155.995, 206.031 155.121, 206.079 154.125 C 206.129 153.089, 206.341 152.953, 206.662 153.750 C 206.940 154.438, 207.804 155, 208.583 155 C 209.733 155, 210 152.549, 210 142 L 210 129 207.407 129 L 204.813 129 205.526 138.500 C 205.917 143.725, 206.012 148, 205.737 148 C 205.462 148, 204.466 143.725, 203.526 138.500 C 201.843 129.156, 201.113 128.010, 198.071 129.935 M 181.576 136.321 C 179.845 137.587, 180.165 138.312, 186.837 148.257 C 190.744 154.081, 194.313 159.076, 194.768 159.357 C 195.223 159.638, 196.234 159.474, 197.014 158.991 C 198.195 158.261, 198.028 157.393, 196.015 153.807 C 189.829 142.786, 185.331 135.610, 184.418 135.306 C 183.869 135.123, 182.590 135.580, 181.576 136.321 M 288.263 140.855 C 289.016 141.786, 289.059 142.120, 288.374 141.709 C 287.165 140.986, 273.217 145.383, 271.604 146.996 C 269.642 148.958, 272.009 149.159, 277.185 147.470 C 280.108 146.516, 282.950 145.424, 283.500 145.043 C 285.108 143.929, 292.973 141.866, 293.771 142.349 C 294.172 142.591, 295.058 142.186, 295.740 141.448 C 297.402 139.649, 296.034 138.974, 291.114 139.167 C 287.583 139.305, 287.195 139.535, 288.263 140.855 M 173.146 142.028 C 171.851 143.107, 170.276 143.728, 169.646 143.410 C 169.016 143.091, 170.075 144.278, 172 146.047 C 173.925 147.817, 178.480 152.130, 182.123 155.633 C 186.228 159.579, 189.596 162, 190.980 162 C 192.556 162, 193.044 161.558, 192.638 160.499 C 191.867 158.489, 176.955 139.991, 176.141 140.033 C 175.788 140.052, 174.441 140.949, 173.146 142.028 M 88.500 147.101 C 90.059 147.831, 89.772 147.927, 87.200 147.534 C 84.864 147.177, 84.109 147.367, 84.614 148.185 C 85.089 148.953, 84.775 149.127, 83.676 148.706 C 82.657 148.315, 82.115 148.537, 82.262 149.286 C 82.393 149.954, 81.643 150.502, 80.595 150.505 C 79.529 150.507, 78.573 151.300, 78.426 152.304 C 78.089 154.602, 76.011 157.125, 74.980 156.488 C 74.544 156.218, 74.417 156.879, 74.699 157.957 C 75.146 159.666, 75.814 159.297, 79.925 155.077 C 82.986 151.935, 85.841 149.995, 88.069 149.545 C 93.710 148.404, 95.054 147.896, 94.557 147.092 C 94.297 146.671, 92.378 146.290, 90.292 146.245 C 87.210 146.178, 86.874 146.338, 88.500 147.101 M 155.431 171.112 C 155.053 171.723, 155.364 172.616, 156.122 173.096 C 157.729 174.115, 161 174.292, 161 173.360 C 161 172.609, 157.813 170.078, 156.809 170.032 C 156.429 170.014, 155.809 170.500, 155.431 171.112 M 153.400 176.162 C 152.354 177.854, 154.105 178.783, 159.649 179.475 C 168.604 180.594, 170.573 181.859, 163.500 181.950 C 156.064 182.046, 153 182.824, 153 184.617 C 153 185.636, 154.643 186.026, 159.250 186.100 C 167.033 186.224, 172.898 187.745, 166.191 187.900 C 163.821 187.955, 162.113 188.374, 162.396 188.832 C 162.679 189.290, 160.963 189.490, 158.583 189.277 C 155.180 188.973, 154.115 189.258, 153.595 190.612 C 153.232 191.560, 153.287 192.641, 153.717 193.015 C 154.414 193.620, 177.800 191.567, 183.876 190.368 C 186.230 189.903, 186.223 189.878, 183.058 187.543 C 181.301 186.247, 178.432 184.599, 176.682 183.881 C 174.932 183.163, 172.720 181.597, 171.766 180.400 C 170.812 179.204, 168.787 177.904, 167.266 177.511 C 161.834 176.109, 153.909 175.338, 153.400 176.162 M 182.500 194.022 C 180.300 194.457, 172.988 195.366, 166.250 196.041 C 159.512 196.716, 154 197.680, 154 198.184 C 154 198.712, 156.542 198.812, 160 198.420 C 167.095 197.618, 167.862 198.502, 161.467 200.113 C 156.669 201.321, 154.541 203.639, 156.025 206.040 C 156.773 207.251, 157.419 207.270, 160.205 206.162 C 166.017 203.852, 189.969 196, 191.206 196 C 193.969 196, 189.697 198.155, 175.250 204.050 C 164.496 208.438, 159.995 210.748, 159.985 211.886 C 159.971 213.293, 159.845 213.308, 159 212 C 158.467 211.175, 158.024 210.993, 158.015 211.595 C 158.007 212.197, 158.857 213.466, 159.905 214.414 C 161.714 216.051, 162.031 216.029, 166.155 213.982 C 172.804 210.681, 179 208.025, 179 208.476 C 179 208.698, 175.625 211.213, 171.500 214.065 C 167.375 216.917, 164 219.588, 164 220.002 C 164 220.416, 164.573 221.231, 165.274 221.812 C 166.674 222.975, 168.948 221.266, 179.411 211.192 C 189.122 201.841, 199.326 195.780, 191.115 204.240 C 188.852 206.572, 187 208.822, 187 209.240 C 187 209.658, 186.438 210.013, 185.750 210.029 C 185.063 210.045, 180.900 213.655, 176.500 218.050 L 168.500 226.042 170.991 227.957 C 173.254 229.697, 173.641 229.730, 175.202 228.317 C 176.147 227.462, 176.826 226.455, 176.710 226.080 C 176.595 225.705, 179.136 222.721, 182.357 219.449 C 192.056 209.598, 199.992 200.326, 199.310 199.643 C 198.956 199.289, 197.842 199, 196.833 199 C 195.825 199, 195.113 198.599, 195.250 198.109 C 195.668 196.621, 190.834 192.992, 188.597 193.115 C 187.444 193.178, 184.700 193.586, 182.500 194.022 M 133.512 198.876 C 131.814 199.239, 130.380 200.263, 130.191 201.247 C 129.910 202.704, 130.385 202.879, 133.179 202.348 C 135.005 202.002, 137.228 201.348, 138.119 200.894 C 139.009 200.441, 139.957 200.290, 140.226 200.559 C 140.495 200.828, 141.284 200.362, 141.980 199.524 C 143.073 198.207, 142.786 198.016, 139.872 198.118 C 138.018 198.183, 135.155 198.524, 133.512 198.876 M 109.783 203.841 C 100.670 206.092, 98.803 208.023, 106.150 207.599 C 113.314 207.186, 122.129 204.892, 121.692 203.556 C 121.158 201.926, 117.145 202.022, 109.783 203.841 M 198.763 204.750 C 197.845 206.262, 192.373 213.125, 186.604 220 L 176.113 232.500 178.307 234.228 C 181.605 236.826, 182.558 236.434, 185.564 231.250 C 187.079 228.637, 189.372 225.228, 190.659 223.673 C 191.947 222.119, 193 220.405, 193 219.865 C 193 218.606, 199.196 210.863, 199.756 211.422 C 200.166 211.833, 194.503 222.644, 188.822 232.294 C 185.466 237.995, 185.388 238.671, 187.991 239.497 C 190.154 240.184, 192 239.453, 192 237.911 C 192 236.847, 203.702 212.940, 204.658 212.050 C 205.577 211.194, 204.186 215.465, 199.223 228.740 C 196.706 235.472, 194.952 241.285, 195.324 241.657 C 196.500 242.834, 197.131 241.434, 202.624 225.456 C 208.341 208.829, 208.555 206.249, 204.440 203.553 C 201.233 201.451, 200.695 201.565, 198.763 204.750 M 249.602 211.404 C 249.900 212.183, 251.256 213.098, 252.613 213.439 C 253.971 213.780, 254.870 214.402, 254.610 214.822 C 254.351 215.241, 255.017 215.651, 256.091 215.732 C 258.876 215.942, 257.505 214.298, 252.961 211.980 C 250.063 210.502, 249.198 210.354, 249.602 211.404 M 216.067 212.500 C 216.074 214.266, 218.926 218.638, 218.965 216.941 C 218.984 216.084, 218.339 214.509, 217.532 213.441 C 216.724 212.374, 216.065 211.950, 216.067 212.500 M 227.107 221.500 C 230.767 226.595, 231.772 227.317, 229.546 223.250 C 227.592 219.680, 225.461 217, 224.578 217 C 224.192 217, 225.330 219.025, 227.107 221.500 M 216 227.559 C 216 228.416, 216.450 228.840, 217 228.500 C 217.550 228.160, 218 227.459, 218 226.941 C 218 226.423, 217.550 226, 217 226 C 216.450 226, 216 226.702, 216 227.559 M 144 234.990 C 139.325 238.796, 135.607 242.364, 135.738 242.919 C 135.869 243.474, 135.419 243.735, 134.738 243.498 C 132.992 242.892, 125.559 249.477, 126.418 250.868 C 127.283 252.267, 130 252.367, 130 251 C 130 250.450, 130.594 250, 131.320 250 C 132.045 250, 133.556 248.988, 134.676 247.750 C 135.796 246.512, 137.994 244.600, 139.559 243.500 C 143.681 240.604, 149.372 235.704, 150.300 234.252 C 150.740 233.563, 151.704 233, 152.443 233 C 153.711 233, 155 230.943, 155 228.918 C 155 226.814, 152.030 228.453, 144 234.990 M 235.736 228.597 C 235.392 228.941, 236.455 230.353, 238.098 231.736 C 239.740 233.118, 241.286 234.048, 241.532 233.802 C 241.778 233.555, 240.715 232.143, 239.170 230.663 C 237.625 229.183, 236.080 228.253, 235.736 228.597 M 237 251.080 C 237 251.755, 238.170 254.780, 239.600 257.803 L 242.200 263.299 239.951 267.301 C 238.714 269.501, 238.212 270.987, 238.836 270.601 C 239.628 270.112, 239.791 270.793, 239.378 272.861 C 238.769 275.903, 240.552 283, 241.925 283 C 242.348 283, 243.732 283.900, 245 285 C 247.270 286.969, 251.639 287.842, 250.570 286.114 C 250.269 285.626, 250.943 284.987, 252.068 284.692 C 253.761 284.250, 253.907 284.407, 252.916 285.602 C 251.937 286.780, 252.024 286.928, 253.386 286.405 C 255.434 285.620, 257 282.846, 257 280.007 C 257 278.838, 257.450 278.160, 258 278.500 C 258.592 278.866, 259 277.722, 259 275.694 C 259 271.322, 255.841 267.279, 250.588 264.927 C 247.218 263.418, 245.996 262.023, 243.483 256.811 C 241.777 253.273, 239.693 250.372, 238.724 250.185 C 237.776 250.003, 237 250.405, 237 251.080" stroke="none" fill="#d22a63" fill-rule="evenodd"/><path d="M 243.290 83.250 C 241.245 85.929, 236.028 100.428, 236.824 101.224 C 238.696 103.096, 240.998 100.447, 244.028 92.931 C 246.992 85.578, 247.360 82, 245.154 82 C 244.654 82, 243.815 82.563, 243.290 83.250 M 267.169 100.075 C 259.797 101.637, 255.604 109.318, 257.745 117.339 C 258.693 120.891, 258.520 121.688, 255.896 125.826 C 252.495 131.188, 252.390 131.764, 254.847 131.613 C 255.863 131.551, 258.451 129.650, 260.597 127.388 C 263.031 124.825, 265.755 123.039, 267.834 122.646 C 278.020 120.721, 283.384 108.302, 276.655 102.223 C 273.929 99.760, 271.379 99.182, 267.169 100.075 M 128.116 136.928 C 127.454 137.338, 128.589 138.994, 131.014 141.157 C 133.206 143.113, 135 144.546, 135 144.340 C 135 144.135, 137.300 145.549, 140.112 147.483 C 145.676 151.310, 145.862 151.374, 147.851 150.113 C 149.217 149.247, 148.847 148.904, 138.750 141.672 C 133.909 138.205, 129.345 136.169, 128.116 136.928 M 266.280 156.157 C 263.690 157.760, 263.299 158.409, 264.280 159.478 C 265.285 160.572, 266.336 160.339, 270.249 158.153 C 272.861 156.694, 274.998 155.162, 274.999 154.750 C 275.001 153.296, 269.461 154.190, 266.280 156.157 M 70.072 165.538 C 67.667 171.966, 67.485 174, 69.316 174 C 70.040 174, 71.567 171.637, 72.709 168.750 C 76.111 160.154, 76.134 160, 74.040 160 C 72.656 160, 71.584 161.495, 70.072 165.538 M 141.074 221.411 C 140.352 222.281, 140.273 223.050, 140.868 223.418 C 142.154 224.213, 147 222.322, 147 221.025 C 147 219.491, 142.420 219.790, 141.074 221.411 M 164.691 244.411 C 162.578 246.369, 161.361 246.724, 158.207 246.301 C 153.060 245.611, 148.737 247.928, 146.542 252.553 C 143.146 259.709, 146.888 266.477, 154.462 266.880 C 156.642 266.996, 158.106 266.772, 157.716 266.383 C 157.326 265.993, 158.404 264.825, 160.110 263.787 C 161.817 262.749, 163.442 261.027, 163.720 259.961 C 163.999 258.895, 164.514 258.199, 164.864 258.414 C 165.214 258.630, 165.625 256.937, 165.778 254.653 C 166.156 249.001, 166.877 247, 168.536 247 C 169.432 247, 169.707 246.400, 169.299 245.336 C 168.820 244.088, 169.015 243.886, 170.080 244.528 C 171.292 245.259, 171.299 245.136, 170.128 243.692 C 168.328 241.474, 167.782 241.546, 164.691 244.411 M 264.750 265.441 C 263.155 266.607, 263.309 267.135, 266.741 272.269 C 268.786 275.330, 270.776 277.639, 271.161 277.401 C 271.546 277.162, 272.145 277.426, 272.492 277.986 C 272.905 278.655, 273.742 278.673, 274.929 278.038 C 275.924 277.506, 277.106 277.392, 277.557 277.785 C 278.483 278.591, 273.557 271.684, 270.500 267.889 C 267.697 264.409, 266.726 263.996, 264.750 265.441" stroke="none" fill="#006165" fill-rule="evenodd"/><path d="M 164 91.545 C 164 93.539, 172.395 109.537, 174.595 111.738 C 175.368 112.511, 176 113.591, 176 114.138 C 176 115.356, 181.131 122.203, 181.653 121.681 C 182.317 121.017, 178.925 113.753, 172.857 102.843 C 166.637 91.661, 164 88.297, 164 91.545 M 294.044 118.731 C 291.923 119.566, 273.170 133.384, 268.583 137.492 C 262.534 142.910, 265.570 141.596, 275.500 134.498 C 280.450 130.959, 287.313 126.187, 290.750 123.893 C 297.639 119.295, 299.325 116.652, 294.044 118.731 M 216.138 141.884 C 216.438 156.932, 217.852 159.651, 220.461 150.197 C 221.325 147.064, 223.175 141.617, 224.572 138.094 C 226.589 133.006, 226.843 131.517, 225.806 130.859 C 223.581 129.448, 223.112 129.864, 221.979 134.250 C 221.375 136.588, 220.244 140.525, 219.466 143 L 218.050 147.500 218.578 140.500 C 218.868 136.650, 219.194 132.617, 219.303 131.538 C 219.422 130.347, 218.789 129.430, 217.688 129.203 C 216.003 128.856, 215.895 129.737, 216.138 141.884 M 230.670 133.725 C 229.396 135.787, 222.031 156.364, 222.426 156.759 C 222.895 157.228, 233.381 136.147, 233.456 134.583 C 233.515 133.355, 231.317 132.678, 230.670 133.725 M 231.109 146.473 C 224.751 157.373, 224.293 158.402, 226.075 157.808 C 226.666 157.611, 227.078 157.062, 226.990 156.587 C 226.901 156.112, 227.270 155.448, 227.810 155.112 C 229.052 154.337, 239 138.170, 239 136.927 C 239 134.168, 236.577 137.099, 231.109 146.473 M 235.102 149.063 C 227.696 159.556, 227.444 160, 228.878 160 C 229.958 160, 244 141.451, 244 140.025 C 244 137.395, 241.655 139.777, 235.102 149.063 M 239.083 151.957 C 234.638 157.442, 231 162.170, 231 162.465 C 231 164.260, 233.498 162.031, 239.590 154.799 C 248.616 144.086, 249.202 143.243, 248.094 142.558 C 247.584 142.243, 243.529 146.473, 239.083 151.957 M 242.526 155.086 C 237.728 160.063, 234.069 164.402, 234.395 164.728 C 235.033 165.366, 236.186 164.443, 245.267 156.020 C 251.581 150.165, 253.548 147.457, 252.128 146.579 C 251.645 146.281, 247.324 150.109, 242.526 155.086 M 163.088 153.250 C 162.321 154.488, 161.078 156.449, 160.325 157.609 C 159.016 159.624, 159.440 159.991, 169.927 165.914 C 175.962 169.322, 181.522 171.973, 182.284 171.805 C 183.046 171.637, 185.911 173.646, 188.651 176.269 C 196.603 183.881, 224.382 205.145, 245.500 219.785 C 253.882 225.595, 255 226.279, 255 225.590 C 255 225.299, 249.488 220.907, 242.750 215.830 C 214.598 194.614, 192.973 176.644, 176.072 160.422 C 170.673 155.240, 165.856 151, 165.368 151 C 164.880 151, 163.854 152.012, 163.088 153.250 M 245.733 159.207 C 240.361 163.657, 236.206 167.539, 236.499 167.832 C 236.793 168.126, 238.263 167.388, 239.766 166.193 C 241.270 164.998, 244.750 162.444, 247.500 160.518 C 256.329 154.336, 257.569 153.177, 256.500 152.112 C 255.835 151.449, 252.230 153.825, 245.733 159.207 M 248 164.113 C 242.225 168.023, 238.290 170.960, 239.256 170.640 C 242.598 169.532, 260 158.880, 260 157.942 C 260 156.220, 258.577 156.951, 248 164.113 M 107.663 160.436 C 107.169 161.723, 108.871 163, 111.082 163 C 112.697 163, 112.065 161.105, 110.100 160.053 C 108.681 159.294, 108.064 159.391, 107.663 160.436 M 206.500 161.976 C 199.806 163.697, 193.891 167.394, 195.554 168.817 C 204.718 176.661, 206.944 178, 210.816 178 C 214.181 178, 215.283 178.543, 217.416 181.250 C 219.169 183.474, 219.981 183.977, 219.989 182.844 C 219.996 181.716, 220.601 181.344, 221.883 181.680 C 222.998 181.971, 224.324 181.423, 225.133 180.336 C 225.885 179.326, 227.173 178.351, 227.997 178.168 C 230.238 177.670, 232 175.944, 232 174.246 C 232 171.206, 223.713 164.289, 218.061 162.611 C 212.192 160.868, 211.054 160.805, 206.500 161.976 M 116 163.472 C 116 164.406, 123.121 167.212, 123.791 166.542 C 124.108 166.226, 123.947 165.572, 123.433 165.089 C 122.259 163.984, 116 162.622, 116 163.472 M 128.651 169.051 C 130.024 170.424, 140.182 173.103, 139.435 171.895 C 138.625 170.584, 132.153 168, 129.678 168 C 128.225 168, 127.916 168.316, 128.651 169.051 M 252.813 173.872 C 248.035 175.317, 243.760 176.893, 243.313 177.374 C 242.858 177.864, 243.380 177.993, 244.500 177.668 C 246.536 177.077, 257.261 174.581, 262.250 173.537 C 265.255 172.909, 266.076 170.925, 263.250 171.122 C 262.288 171.189, 257.591 172.426, 252.813 173.872 M 250 180.202 C 242.025 181.835, 235.089 183.567, 234.586 184.049 C 233.541 185.054, 237.132 184.595, 251.500 181.889 C 257 180.854, 262.512 180.005, 263.750 180.003 C 265.082 180.001, 266 179.388, 266 178.500 C 266 177.675, 265.663 177.052, 265.250 177.117 C 264.837 177.181, 257.975 178.569, 250 180.202 M 211.203 179.855 C 210.169 180.510, 210.224 180.941, 211.477 181.981 C 212.341 182.698, 213.334 183, 213.682 182.651 C 214.031 182.303, 215.027 182.576, 215.896 183.259 C 217.336 184.390, 217.336 184.282, 215.903 182.055 C 214.075 179.216, 213.003 178.714, 211.203 179.855 M 259.917 184.403 C 259.688 184.624, 252.525 185.577, 244 186.519 C 235.475 187.462, 227.825 188.617, 227 189.086 C 226.118 189.588, 231.888 189.981, 241 190.040 C 249.525 190.096, 258.637 190.364, 261.250 190.637 C 264.257 190.951, 266 190.741, 266 190.066 C 266 189.392, 262.417 188.959, 256.250 188.888 C 248.049 188.794, 247.215 188.648, 251 187.971 C 253.475 187.528, 258.087 186.871, 261.250 186.511 C 267.427 185.807, 269.167 184, 263.667 184 C 261.833 184, 260.146 184.181, 259.917 184.403 M 230 194.086 C 233.025 194.545, 238.425 195.180, 242 195.495 C 245.575 195.811, 252.244 196.410, 256.819 196.827 C 263.889 197.471, 267.305 196.972, 265.842 195.508 C 265.378 195.045, 232.108 192.961, 227.789 193.125 C 225.428 193.214, 226.052 193.485, 230 194.086 M 231.071 197.347 C 231.969 198.335, 260.271 204.101, 262.500 203.749 C 263.600 203.576, 257.975 202.181, 250 200.651 C 242.025 199.120, 234.375 197.609, 233 197.293 C 231.625 196.977, 230.757 197.001, 231.071 197.347 M 280 199.917 C 280 200.937, 285.169 202.170, 301.500 205.044 C 313.644 207.181, 319.548 207.552, 316.918 206.014 C 315.413 205.134, 284.360 199, 281.407 199 C 280.633 199, 280 199.413, 280 199.917 M 241.037 204.317 C 241.879 205.243, 255.164 210.663, 258.500 211.441 C 264.053 212.737, 259.717 210.322, 251.500 207.541 C 247.100 206.053, 242.825 204.585, 242 204.280 C 241.175 203.976, 240.742 203.992, 241.037 204.317 M 220.080 228 C 221.538 231.061, 222 231.628, 222 230.358 C 222 229.821, 221.300 228.509, 220.445 227.441 C 218.978 225.611, 218.958 225.643, 220.080 228 M 273.039 230.189 C 271.538 231.800, 271.004 233.712, 271.015 237.439 C 271.033 243.209, 272.380 246.528, 273.401 243.313 C 273.741 242.239, 275.118 239.874, 276.459 238.056 L 278.898 234.750 279.578 239.875 C 280.327 245.525, 281.579 246.487, 282.669 242.250 L 283.376 239.500 284.169 242 C 284.715 243.725, 284.842 242.960, 284.579 239.534 C 284.258 235.358, 283.627 234.047, 280.613 231.284 C 276.379 227.404, 275.722 227.309, 273.039 230.189 M 250 246.320 C 250 247.596, 251.238 250.058, 252.750 251.792 C 254.262 253.525, 257.300 257.184, 259.500 259.922 C 264.139 265.696, 265.517 266.367, 263.253 261.750 C 260.685 256.512, 252.026 244, 250.970 244 C 250.436 244, 250 245.044, 250 246.320 M 180.361 252.268 C 179.243 253.690, 177.568 256.843, 176.639 259.276 C 175.208 263.022, 174.349 263.878, 171.025 264.874 C 167.281 265.996, 164.178 269.148, 162.640 273.391 C 162.058 274.996, 162.185 275.091, 163.477 274.019 C 164.788 272.931, 165 273.207, 165 276 C 165 278.693, 165.242 279.044, 166.423 278.064 C 167.576 277.107, 167.914 277.321, 168.207 279.192 C 168.509 281.122, 169.038 280.599, 171.440 276 C 174.600 269.948, 175.604 270.358, 174.093 277.083 C 173.554 279.482, 173.289 281.622, 173.505 281.838 C 173.721 282.054, 175.298 280.041, 177.010 277.365 C 179.535 273.418, 179.989 273.047, 179.416 275.399 C 178.931 277.383, 179.052 278.086, 179.796 277.626 C 180.395 277.256, 181.196 274.874, 181.577 272.333 C 182.180 268.313, 181.990 267.501, 180.112 266.085 L 177.954 264.457 180.527 258.127 C 183.441 250.953, 183.371 248.442, 180.361 252.268" stroke="none" fill="#f5a11b" fill-rule="evenodd"/><path d="M 173.384 73.442 C 173.080 74.235, 174.060 78.188, 175.562 82.227 C 177.608 87.729, 178.758 89.571, 180.147 89.571 C 182.516 89.571, 182.487 87.729, 180.005 80.515 C 177.261 72.540, 174.757 69.864, 173.384 73.442 M 257 84.786 C 257 85.218, 257.900 85.571, 259 85.571 C 260.100 85.571, 261 85.218, 261 84.786 C 261 84.354, 260.100 84, 259 84 C 257.900 84, 257 84.354, 257 84.786 M 165 89.941 C 165 90.459, 165.413 91.137, 165.917 91.449 C 167.885 92.665, 182.094 119.604, 181.964 121.872 C 181.944 122.217, 180.783 121.150, 179.382 119.500 L 176.837 116.500 178.471 119.801 C 180.330 123.559, 182.587 124.820, 184.317 123.068 C 185.989 121.376, 169.300 89.017, 166.750 89.007 C 165.787 89.003, 165 89.423, 165 89.941 M 297.030 118.611 C 297.014 119.222, 294.188 121.599, 290.750 123.893 C 287.313 126.187, 280.450 130.959, 275.500 134.498 C 265.476 141.663, 262.643 142.855, 268.583 137.409 L 272.500 133.818 268.250 136.993 C 265.913 138.739, 264 140.805, 264 141.584 C 264 144.997, 269.418 142.465, 283.552 132.447 C 291.740 126.642, 298.607 121.726, 298.812 121.522 C 299.016 121.317, 298.706 120.329, 298.122 119.325 C 297.538 118.321, 297.047 118, 297.030 118.611 M 225.164 136.318 C 223.114 141.264, 219 154.565, 219 156.247 C 219 156.661, 219.608 157, 220.351 157 C 221.094 157, 223.755 158.091, 226.264 159.425 L 230.825 161.851 232.649 159.835 C 233.652 158.727, 234.479 157.073, 234.487 156.160 C 234.494 155.247, 235.009 154.595, 235.631 154.710 C 236.253 154.826, 237.603 153.926, 238.631 152.710 L 240.500 150.500 238.250 152.405 C 235.243 154.951, 235.405 153.647, 238.619 149.433 C 240.059 147.545, 241.002 146, 240.713 146 C 240.425 146, 237.854 149.150, 235 153 C 230.238 159.424, 228 161.381, 228 159.122 C 228 158.640, 228.670 157.689, 229.489 157.009 C 230.308 156.329, 230.761 155.422, 230.495 154.991 C 230.229 154.561, 230.676 153.954, 231.489 153.643 C 232.403 153.292, 232.717 152.426, 232.313 151.374 C 231.903 150.306, 232.054 149.915, 232.717 150.325 C 233.298 150.684, 234.387 150.222, 235.137 149.297 C 236.074 148.141, 236.110 147.851, 235.250 148.367 C 233.401 149.478, 233.706 148.357, 236.595 143.428 C 238.022 140.993, 238.942 139, 238.639 139 C 238.336 139, 236.266 142.120, 234.038 145.934 C 231.811 149.748, 229.300 153.557, 228.459 154.399 C 227.617 155.240, 226.978 156.271, 227.039 156.689 C 227.100 157.108, 226.692 157.603, 226.132 157.789 C 224.642 158.286, 225.193 154.140, 226.694 153.564 C 227.431 153.281, 227.692 152.360, 227.313 151.374 C 226.874 150.230, 227.040 149.907, 227.819 150.388 C 228.599 150.870, 228.762 150.544, 228.319 149.388 C 227.891 148.273, 228.046 147.910, 228.761 148.352 C 229.366 148.726, 230.187 148.506, 230.585 147.862 C 231.063 147.088, 230.873 146.960, 230.025 147.485 C 229.163 148.017, 228.907 147.821, 229.245 146.889 C 229.523 146.125, 230.240 145.607, 230.839 145.738 C 231.438 145.869, 231.705 145.395, 231.433 144.685 C 231.160 143.975, 231.632 141.731, 232.482 139.697 C 233.332 137.664, 233.783 136, 233.485 136 C 233.187 136, 230.698 140.725, 227.954 146.500 C 225.210 152.275, 222.779 157, 222.551 157 C 221.483 157, 223.176 146.684, 225.416 139.540 C 226.789 135.161, 227.788 131.454, 227.635 131.302 C 227.483 131.149, 226.371 133.406, 225.164 136.318 M 219.195 134.500 C 219.215 136.150, 219.439 136.704, 219.693 135.731 C 219.947 134.758, 219.930 133.408, 219.656 132.731 C 219.382 132.054, 219.175 132.850, 219.195 134.500 M 236.437 136.102 C 235.940 136.907, 236.113 137.048, 236.957 136.526 C 237.691 136.073, 238.629 136.323, 239.188 137.122 C 239.994 138.273, 240.088 138.264, 239.764 137.063 C 239.245 135.143, 237.365 134.600, 236.437 136.102 M 218.127 143 C 218.127 146.675, 218.293 147.087, 219.031 145.250 C 219.570 143.909, 219.570 142.091, 219.031 140.750 C 218.293 138.913, 218.127 139.325, 218.127 143 M 167 141.350 C 167 141.581, 168.180 142.543, 169.623 143.489 C 171.066 144.434, 171.941 144.713, 171.567 144.109 C 170.854 142.955, 167 140.626, 167 141.350 M 291.441 144.468 C 290.374 145.276, 290.007 145.951, 290.628 145.968 C 291.248 145.986, 292.315 145.325, 293 144.500 C 294.581 142.595, 293.935 142.582, 291.441 144.468 M 80.403 150.180 C 77.349 152.350, 72.473 158.807, 73.280 159.613 C 73.513 159.846, 74.949 158.238, 76.473 156.040 C 77.996 153.842, 80.650 151.141, 82.371 150.038 C 84.092 148.936, 85.044 148.026, 84.486 148.017 C 83.928 148.008, 82.091 148.981, 80.403 150.180 M 238.684 155.750 C 232.643 162.952, 232.295 163.626, 233.768 165.274 C 235.544 167.261, 237.499 167.074, 237.503 164.917 C 237.504 164.137, 238.274 163.495, 239.214 163.488 C 240.154 163.482, 241.390 162.920, 241.962 162.238 C 242.705 161.352, 242.682 161.262, 241.878 161.922 C 241.261 162.429, 240.208 162.633, 239.538 162.376 C 238.868 162.119, 237.743 162.604, 237.038 163.454 C 236.332 164.305, 235.305 165, 234.755 165 C 234.145 165, 234.189 164.477, 234.869 163.658 C 235.481 162.920, 235.772 162.105, 235.514 161.848 C 235.257 161.590, 237.545 158.369, 240.599 154.690 C 243.653 151.010, 245.934 148, 245.668 148 C 245.402 148, 242.259 151.488, 238.684 155.750 M 249.063 152.423 L 245.626 156.500 249.513 152.783 C 251.651 150.739, 253.197 148.905, 252.950 148.706 C 252.703 148.508, 250.953 150.181, 249.063 152.423 M 253.500 156.130 C 251.300 157.820, 247.925 160.296, 246 161.631 C 236.070 168.517, 235.989 168.602, 237.463 170.619 C 239.023 172.752, 240.500 171.843, 240.500 168.750 C 240.500 167.604, 241.125 166.458, 241.889 166.204 C 242.815 165.895, 243.014 166.169, 242.485 167.025 C 241.960 167.873, 242.088 168.063, 242.862 167.585 C 243.506 167.187, 243.790 166.469, 243.493 165.988 C 243.195 165.507, 246.338 162.610, 250.476 159.550 C 254.614 156.490, 258 153.764, 258 153.493 C 258 152.718, 257.742 152.870, 253.500 156.130 M 158.461 161.064 C 158.097 161.652, 157.957 162.264, 158.150 162.423 C 158.342 162.582, 164.125 166.453, 171 171.025 C 186.974 181.647, 211.313 198.653, 230.702 212.739 C 241.444 220.544, 247.728 224.400, 252.125 225.885 C 255.547 227.041, 258.435 227.877, 258.542 227.743 C 258.649 227.609, 257.350 226.375, 255.656 225 C 253.962 223.625, 252.923 223.063, 253.347 223.750 C 254.680 225.910, 253.148 225.151, 245.716 219.966 C 234.039 211.820, 229.692 208.664, 219.831 201.177 C 200.459 186.468, 193.485 180.896, 188.651 176.269 C 185.911 173.646, 183.024 171.643, 182.235 171.817 C 181.446 171.991, 176.908 169.909, 172.150 167.189 C 159.514 159.967, 159.220 159.835, 158.461 161.064 M 106 162.965 C 106 163.495, 106.957 164.442, 108.127 165.068 C 109.787 165.956, 110.438 165.909, 111.091 164.853 C 111.644 163.959, 111.346 163.270, 110.213 162.821 C 107.681 161.816, 106 161.873, 106 162.965 M 115.667 162.667 C 115.300 163.033, 115 164.308, 115 165.499 C 115 167.126, 115.923 167.948, 118.709 168.803 C 121.568 169.680, 122.594 169.661, 123.183 168.721 C 123.695 167.903, 122.613 166.926, 119.907 165.763 C 117.685 164.807, 116.148 163.570, 116.492 163.013 C 117.198 161.871, 116.680 161.653, 115.667 162.667 M 180 164.500 C 181.292 165.875, 182.574 167, 182.849 167 C 183.124 167, 182.292 165.875, 181 164.500 C 179.708 163.125, 178.426 162, 178.151 162 C 177.876 162, 178.708 163.125, 180 164.500 M 261.244 165.664 C 260.553 165.943, 260.285 166.652, 260.648 167.240 C 261.028 167.854, 260.840 168.019, 260.206 167.627 C 259.599 167.252, 255.817 169.036, 251.801 171.591 C 247.785 174.146, 245.324 175.958, 246.332 175.618 C 247.339 175.278, 248.828 175, 249.641 175 C 250.453 175, 250.865 174.590, 250.555 174.090 C 250.246 173.589, 253.145 171.943, 256.996 170.432 C 260.848 168.921, 264 167.080, 264 166.342 C 264 164.951, 263.387 164.800, 261.244 165.664 M 126.700 168.341 C 126.417 169.078, 126.483 170.163, 126.846 170.751 C 127.718 172.162, 137.882 175.999, 140.750 175.999 C 143.960 176, 143.671 172.627, 140.332 171.105 C 138.008 170.047, 137.822 170.081, 138.892 171.370 C 139.973 172.673, 139.523 172.693, 135.150 171.539 C 128.250 169.719, 126.896 168.759, 130.010 167.892 L 132.500 167.199 129.857 167.100 C 128.403 167.045, 126.982 167.603, 126.700 168.341 M 263.250 170.689 C 265.884 171.378, 265.354 172.888, 262.250 173.537 C 257.052 174.625, 246.498 177.088, 244.625 177.651 C 243.288 178.052, 242.974 177.852, 243.529 176.953 C 244.409 175.529, 244.514 175.474, 235.500 181.102 C 232.200 183.162, 228.262 185.156, 226.750 185.532 C 224.430 186.110, 224 185.900, 224 184.192 C 224 183.078, 225.238 181.223, 226.750 180.069 C 228.262 178.915, 228.825 178.090, 228 178.235 C 227.175 178.381, 225.885 179.326, 225.133 180.336 C 224.324 181.423, 222.998 181.971, 221.883 181.680 C 220.612 181.347, 220 181.713, 220 182.806 C 220 183.892, 219.096 183.343, 217.250 181.135 C 214.877 178.297, 213.973 177.890, 210.657 178.173 L 206.814 178.500 209.627 181 C 211.174 182.375, 211.879 182.765, 211.194 181.867 C 210.172 180.527, 210.239 180.122, 211.565 179.614 C 213.565 178.846, 214.655 179.484, 216.158 182.306 C 217.194 184.249, 217.147 184.351, 215.753 183.201 C 214.790 182.407, 213.945 182.281, 213.577 182.875 C 213.247 183.410, 214.894 185.396, 217.238 187.290 L 221.500 190.732 244.250 191.401 C 265.675 192.032, 266.999 191.967, 266.985 190.285 C 266.973 188.946, 266.761 188.828, 266.135 189.815 C 265.565 190.714, 263.910 190.971, 260.901 190.627 C 258.480 190.351, 249.525 190.090, 241 190.047 C 230.602 189.995, 225.994 189.650, 227 189 C 227.825 188.467, 229.850 188.021, 231.500 188.009 C 233.150 187.997, 235.671 187.376, 237.103 186.629 C 238.535 185.882, 241.910 184.957, 244.603 184.573 C 247.296 184.189, 253.438 183.171, 258.250 182.310 C 266.085 180.910, 266.988 180.524, 266.884 178.623 C 266.792 176.933, 266.675 176.857, 266.311 178.250 C 266.052 179.239, 264.907 180.001, 263.677 180.003 C 262.480 180.005, 257 180.854, 251.500 181.889 C 236.860 184.646, 233.878 185.007, 234.537 183.941 C 234.856 183.423, 236.018 183, 237.118 183 C 238.326 183, 238.847 182.561, 238.434 181.893 C 237.957 181.122, 238.773 180.988, 241.125 181.454 C 243.619 181.947, 244.108 181.848, 243 181.076 C 242.175 180.501, 241.829 180.024, 242.231 180.015 C 243.696 179.985, 265.218 174.116, 265.725 173.609 C 266.785 172.548, 265.005 170.004, 263.281 170.116 C 261.612 170.225, 261.610 170.261, 263.250 170.689 M 190 173.500 C 191.292 174.875, 192.574 176, 192.849 176 C 193.124 176, 192.292 174.875, 191 173.500 C 189.708 172.125, 188.426 171, 188.151 171 C 187.876 171, 188.708 172.125, 190 173.500 M 311.500 173.692 C 304.125 175.388, 301.844 176.244, 302.625 177.025 C 303.587 177.987, 309.053 178.291, 313 177.603 C 314.375 177.363, 316.063 177.129, 316.750 177.083 C 317.438 177.037, 318 176.100, 318 175 C 318 172.973, 316.200 172.611, 311.500 173.692 M 203.402 175.746 C 204.861 177.470, 205.617 177.733, 206.652 176.874 C 207.393 176.259, 208 175.495, 208 175.178 C 208 174.860, 207.466 175.134, 206.814 175.786 C 205.899 176.701, 205.156 176.576, 203.564 175.236 C 201.505 173.504, 201.505 173.506, 203.402 175.746 M 240.250 186.689 C 241.213 186.941, 242.787 186.941, 243.750 186.689 C 244.713 186.438, 243.925 186.232, 242 186.232 C 240.075 186.232, 239.287 186.438, 240.250 186.689 M 263.269 186.693 C 264.242 186.947, 265.592 186.930, 266.269 186.656 C 266.946 186.382, 266.150 186.175, 264.500 186.195 C 262.850 186.215, 262.296 186.439, 263.269 186.693 M 250 188 C 246.728 188.689, 246.826 188.739, 251.500 188.769 C 254.250 188.786, 257.625 188.440, 259 188 C 261.122 187.320, 260.896 187.204, 257.500 187.231 C 255.300 187.249, 251.925 187.595, 250 188 M 225.750 192.706 C 226.988 192.944, 229.012 192.944, 230.250 192.706 C 231.488 192.467, 230.475 192.272, 228 192.272 C 225.525 192.272, 224.512 192.467, 225.750 192.706 M 239.750 193.706 C 240.988 193.944, 243.012 193.944, 244.250 193.706 C 245.488 193.467, 244.475 193.272, 242 193.272 C 239.525 193.272, 238.512 193.467, 239.750 193.706 M 227.834 195.810 C 229.728 197.490, 230.603 197.682, 232.475 196.830 C 234.179 196.053, 238.772 196.327, 250.067 197.879 C 258.475 199.035, 265.443 199.872, 265.552 199.740 C 265.662 199.608, 266.054 198.375, 266.424 197 C 266.920 195.152, 266.839 194.903, 266.112 196.047 C 265.279 197.356, 263.777 197.469, 256.314 196.783 C 251.466 196.337, 245.475 195.800, 243 195.589 C 240.525 195.378, 235.575 194.876, 232 194.472 L 225.500 193.739 227.834 195.810 M 257.250 194.689 C 258.212 194.941, 259.788 194.941, 260.750 194.689 C 261.712 194.438, 260.925 194.232, 259 194.232 C 257.075 194.232, 256.288 194.438, 257.250 194.689 M 233.136 197.700 C 232.154 198.091, 232.574 198.916, 234.636 200.647 C 240.035 205.178, 249.490 211.407, 251.155 211.530 C 253.186 211.679, 258.370 214.964, 257.674 215.660 C 257.399 215.935, 255.897 215.395, 254.337 214.461 L 251.500 212.763 254 214.859 C 257.326 217.648, 258.252 217.536, 260.284 214.096 C 262.278 210.720, 262.394 210, 260.941 210 C 260.359 210, 260.190 210.498, 260.566 211.107 C 261.419 212.486, 258.871 211.823, 249.745 208.292 C 242.387 205.445, 241.015 204.036, 248 206.500 C 250.372 207.337, 252.491 207.842, 252.710 207.623 C 253.521 206.812, 243.860 204.116, 242.295 204.717 C 241.117 205.169, 240.899 204.972, 241.500 204 C 242.074 203.071, 241.895 202.821, 240.914 203.186 C 240.136 203.475, 238.652 202.894, 237.616 201.895 C 235.561 199.913, 234.501 199.684, 256.252 205.923 C 262.830 207.810, 263.030 207.812, 264.002 205.996 C 265.616 202.980, 265.173 201.994, 262.250 202.100 L 259.500 202.199 262 203 C 267.110 204.637, 260.681 204.012, 249.692 201.805 C 242.173 200.294, 239.346 199.372, 240.632 198.849 C 241.691 198.418, 240.551 198.293, 238 198.561 C 234.693 198.908, 234.030 198.782, 235.500 198.087 C 237.660 197.065, 235.587 196.726, 233.136 197.700 M 278.250 198.662 C 276.281 199.457, 276.787 201.554, 279.250 202.808 C 280.488 203.438, 286.450 204.878, 292.500 206.008 C 298.550 207.138, 305.387 208.499, 307.693 209.031 C 309.999 209.564, 313.744 210, 316.016 210 C 319.412 210, 320.086 209.689, 319.808 208.250 C 319.558 206.955, 318.680 206.579, 316.436 206.804 C 313.582 207.090, 297.023 204.522, 285.181 201.957 C 281.308 201.118, 280.007 200.423, 280.399 199.402 C 280.952 197.961, 280.431 197.782, 278.250 198.662 M 213.572 211.673 C 212.727 213.874, 214.783 223.640, 216.439 225.296 C 217.152 226.009, 218.063 227.623, 218.463 228.883 C 220.150 234.198, 224.234 241.999, 225.323 241.985 C 225.970 241.976, 227.152 241.557, 227.950 241.052 C 229.144 240.297, 228.213 237.720, 222.667 226.433 C 218.965 218.897, 216.130 212.536, 216.369 212.298 C 216.607 212.059, 220.278 217.978, 224.527 225.451 C 228.775 232.923, 232.598 239.251, 233.021 239.513 C 233.445 239.775, 234.734 239.204, 235.887 238.245 C 237.981 236.501, 237.979 236.496, 231.948 228.126 C 228.630 223.520, 226.103 219.563, 226.334 219.333 C 226.565 219.102, 228.663 221.070, 230.996 223.707 C 233.329 226.343, 235.571 228.409, 235.978 228.297 C 236.384 228.186, 237.989 229.423, 239.545 231.047 C 242.852 234.499, 241.775 235.043, 238.156 231.750 L 235.683 229.500 237.980 232.683 C 240.171 235.720, 240.384 235.794, 242.638 234.318 C 243.937 233.466, 244.991 232.484, 244.980 232.135 C 244.949 231.176, 227.968 218.818, 226.355 218.582 C 225.583 218.468, 224.288 217.428, 223.476 216.270 C 222.149 214.375, 216.052 210, 214.739 210 C 214.450 210, 213.925 210.753, 213.572 211.673 M 220.080 228 C 221.538 231.061, 222 231.628, 222 230.358 C 222 229.821, 221.300 228.509, 220.445 227.441 C 218.978 225.611, 218.958 225.643, 220.080 228 M 125.750 232.191 C 122.588 234.453, 120 236.862, 120 237.545 C 120 240.139, 123.089 239.861, 126.383 236.969 C 128.242 235.336, 130.197 234, 130.727 234 C 132.022 234, 135 230.634, 135 229.171 C 135 226.945, 131.478 228.094, 125.750 232.191 M 270.160 238.102 C 269.937 244.527, 273.228 249.387, 278.083 249.799 C 282.490 250.172, 284.922 247.741, 285.509 242.374 C 285.891 238.874, 285.850 238.789, 285.084 241.500 C 284.276 244.360, 284.227 244.384, 284.039 242 L 283.842 239.500 282.838 242.250 C 281.347 246.331, 280.338 245.609, 279.584 239.922 L 278.910 234.844 277.101 237.172 C 276.106 238.452, 274.590 240.850, 273.732 242.500 L 272.172 245.500 271.606 243 C 271.295 241.625, 270.878 238.925, 270.680 237 C 270.376 234.041, 270.295 234.211, 270.160 238.102 M 250.250 242.718 C 249.563 242.965, 249.052 244.142, 249.116 245.333 C 249.207 247.024, 249.332 247.116, 249.689 245.750 C 250.473 242.752, 251.780 243.763, 256.799 251.250 C 261.556 258.346, 265.252 265, 264.437 265 C 264.211 265, 262.401 263.313, 260.414 261.250 L 256.801 257.500 259.651 261.729 C 262.478 265.924, 264.302 266.938, 265.510 264.984 C 265.856 264.425, 266.602 264.254, 267.169 264.604 C 268.843 265.639, 266.111 261.053, 259.908 252.414 C 253.473 243.454, 252.083 242.059, 250.250 242.718 M 180.900 250.717 C 179.625 252.340, 179.657 252.377, 181.250 251.128 C 183.673 249.227, 183.505 250.797, 180.492 258.212 C 178.835 262.291, 178.320 264.720, 178.975 265.375 C 180.168 266.568, 180.061 266.721, 182.377 260.500 C 185.503 252.102, 184.586 246.022, 180.900 250.717 M 181.502 272.991 C 181.130 275.190, 180.350 277.284, 179.767 277.644 C 179.058 278.082, 178.942 277.340, 179.416 275.399 C 179.989 273.047, 179.535 273.418, 177.010 277.365 C 175.298 280.041, 173.721 282.054, 173.505 281.838 C 173.289 281.622, 173.554 279.482, 174.093 277.083 C 175.604 270.358, 174.600 269.948, 171.440 276 C 169.038 280.599, 168.509 281.122, 168.207 279.192 C 167.914 277.321, 167.576 277.107, 166.423 278.064 C 165.242 279.044, 165 278.693, 165 276 C 165 273.229, 164.781 272.937, 163.500 274 C 160.422 276.554, 162.673 285.684, 166.945 287.970 C 171.749 290.542, 179.964 287.417, 182.721 281.970 C 184.170 279.105, 184.429 270.383, 183.089 269.555 C 182.587 269.245, 181.873 270.791, 181.502 272.991" stroke="none" fill="#c75834" fill-rule="evenodd"/><path d="M 209.250 46.662 C 208.283 47.052, 208 55.164, 208 82.476 C 208 114.163, 208.167 117.850, 209.627 118.410 C 213.816 120.018, 214 118.484, 214 81.985 C 214 51.201, 213.819 47.144, 212.418 46.607 C 211.548 46.273, 210.761 46.036, 210.668 46.079 C 210.576 46.122, 209.938 46.385, 209.250 46.662 M 186.596 71.612 C 186.027 73.093, 194.331 116.108, 195.573 118.118 C 196.458 119.550, 200.015 119.125, 200.633 117.514 C 201.322 115.718, 193.101 73.024, 191.725 71.250 C 190.355 69.484, 187.330 69.698, 186.596 71.612 M 229.691 70.750 C 228.183 73.398, 220.679 115.721, 221.390 117.573 C 222.250 119.815, 225.930 119.272, 226.972 116.750 C 228.573 112.873, 235.331 73.305, 234.681 71.611 C 234.056 69.983, 230.479 69.366, 229.691 70.750 M 154.640 72.495 C 154.187 73.677, 160.539 88.537, 162.439 90.740 C 162.777 91.131, 167.987 88.544, 167.958 88 C 167.943 87.725, 166.034 83.900, 163.716 79.500 C 160.715 73.805, 158.888 71.413, 157.377 71.197 C 156.140 71.021, 154.998 71.562, 154.640 72.495 M 263.701 71.632 C 263.316 72.018, 263 73.383, 263 74.667 C 263 76.505, 263.544 77, 265.566 77 C 267.774 77, 268.089 76.617, 267.816 74.259 C 267.514 71.638, 265.183 70.150, 263.701 71.632 M 275.384 82.442 C 274.319 85.217, 275.456 87.500, 277.905 87.500 C 281.059 87.500, 282.846 84.724, 281.070 82.584 C 279.428 80.606, 276.120 80.523, 275.384 82.442 M 142.309 85.636 C 141.482 87.792, 143.259 90.500, 145.500 90.500 C 147.741 90.500, 149.518 87.792, 148.691 85.636 C 147.870 83.497, 143.130 83.497, 142.309 85.636 M 250.106 104.555 C 243.646 116.621, 240.288 121.941, 239.356 121.583 C 238.594 121.291, 238 121.706, 238 122.531 C 238 123.339, 238.805 124, 239.790 124 C 240.986 124, 242.872 121.596, 245.479 116.750 C 247.624 112.763, 251.994 104.785, 255.190 99.023 C 258.385 93.261, 261 88.198, 261 87.773 C 261 85.053, 258.407 89.047, 250.106 104.555 M 286.970 95.536 C 285.154 97.725, 286.908 100.500, 290.109 100.500 C 292.099 100.500, 292.500 99.997, 292.500 97.500 C 292.500 95.220, 291.999 94.428, 290.412 94.202 C 289.264 94.038, 287.715 94.638, 286.970 95.536 M 131.384 97.442 C 130.319 100.217, 131.456 102.500, 133.905 102.500 C 137.059 102.500, 138.846 99.724, 137.070 97.584 C 135.428 95.606, 132.120 95.523, 131.384 97.442 M 236.001 102.143 C 235.999 103.517, 238.912 103.811, 239.963 102.544 C 240.843 101.484, 240.548 101.237, 238.537 101.354 C 237.143 101.434, 236.001 101.789, 236.001 102.143 M 305.812 109.623 C 295.984 116.277, 293.950 118, 295.925 118 C 296.670 118, 297.818 118.736, 298.476 119.636 C 299.540 121.091, 300.684 120.592, 308.836 115.110 C 318.137 108.856, 319.543 106.896, 316.062 105.033 C 314.460 104.176, 312.683 104.972, 305.812 109.623 M 146.744 115.589 C 145.120 117.213, 146.165 120.365, 149.400 123.600 C 152.142 126.342, 153.580 127, 156.832 127 C 160.170 127, 161.231 127.516, 163 130 C 165.019 132.836, 169 134.163, 169 132 C 169 131.450, 168.395 131, 167.655 131 C 165.833 131, 163 127.738, 163 125.640 C 163 124.703, 163.675 123.678, 164.500 123.362 C 165.325 123.045, 166 122.180, 166 121.438 C 166 120.609, 165.056 121.035, 163.545 122.545 C 160.551 125.540, 155.381 126.220, 153.888 123.815 C 153.552 123.273, 152.877 122.827, 152.388 122.824 C 150.298 122.813, 148.768 121.100, 148.150 118.080 C 147.786 116.301, 147.154 115.180, 146.744 115.589 M 275.288 118.502 C 273.236 120.651, 270.526 122.214, 267.788 122.827 C 263.945 123.686, 263.822 123.797, 266.602 123.893 C 270.018 124.011, 275.461 120.773, 277.770 117.250 C 279.787 114.171, 279.084 114.526, 275.288 118.502 M 119.040 117.452 C 117.110 119.777, 118.204 122.464, 121.224 122.813 C 123.441 123.070, 124.051 122.644, 124.600 120.456 C 125.585 116.532, 121.593 114.375, 119.040 117.452 M 326.250 123.576 C 319.512 127.746, 314 131.761, 314 132.498 C 314 134.804, 315.166 137.003, 316.357 136.939 C 316.986 136.906, 323.350 133.172, 330.500 128.641 C 339.912 122.677, 343.500 119.865, 343.500 118.452 C 343.500 114.376, 338.910 115.739, 326.250 123.576 M 87.455 122.073 C 86.315 123.917, 100.600 130.008, 114.021 133.401 C 120.389 135.011, 123.816 136.516, 127.078 139.137 C 133.019 143.910, 135.480 145.058, 130.583 140.771 C 127.413 137.996, 126.977 137.223, 128.301 136.715 C 129.200 136.370, 130.190 136.498, 130.500 137 C 130.810 137.502, 131.718 137.662, 132.518 137.355 C 133.318 137.048, 137.086 137.742, 140.891 138.898 C 149.259 141.440, 150 141.473, 150 139.300 C 150 138.113, 149.683 137.917, 148.951 138.649 C 148.218 139.382, 146.180 139.130, 142.201 137.814 C 139.065 136.778, 132.675 135.262, 128 134.445 C 114.524 132.092, 104.114 129.071, 95.696 125.073 C 91.404 123.034, 87.695 121.684, 87.455 122.073 M 195 123.600 C 187.083 125.713, 178.391 130.024, 171.531 135.241 L 165.562 139.780 160.327 135.308 C 155.094 130.838, 151.809 130.040, 151.220 133.096 C 151.053 133.961, 152.999 137.199, 155.544 140.290 L 160.171 145.910 157.700 149.205 C 156.340 151.017, 154.268 154.412, 153.094 156.750 C 151.920 159.088, 150.800 161, 150.605 161 C 150.410 161, 141.306 156.663, 130.375 151.363 C 92.974 133.227, 91 132.535, 91 137.552 C 91 139.466, 92.271 140.491, 97.995 143.195 C 105.613 146.794, 107.005 149.287, 102.379 151.046 C 100.148 151.894, 99.845 152.476, 100.343 154.963 C 100.752 157.008, 100.043 159.833, 97.981 164.382 C 95.078 170.785, 94.985 170.872, 91.665 170.333 C 87.098 169.592, 86.026 172.193, 89.553 175.461 C 91.492 177.258, 91.936 178.408, 91.445 180.364 C 90.436 184.382, 89.035 184.904, 78.444 185.211 C 68.581 185.498, 68.500 185.520, 68.500 188 L 68.500 190.500 86.870 190.773 C 106.699 191.068, 108.461 190.683, 107.360 186.299 L 106.740 183.827 110.870 185.934 C 114.532 187.802, 115 188.441, 115 191.570 C 115 195.804, 117.274 200.541, 120.010 202.006 C 121.105 202.591, 122 203.419, 122 203.846 C 122 204.934, 112.501 207.248, 106.772 207.557 C 104.142 207.698, 102.105 208.194, 102.245 208.657 C 102.705 210.178, 112.246 209.085, 127.489 205.765 C 139.850 203.072, 142.541 202.172, 142.835 200.632 C 143.095 199.275, 142.824 198.993, 141.846 199.603 C 141.106 200.066, 140.050 200.551, 139.500 200.683 C 138.950 200.814, 136.705 201.366, 134.511 201.909 C 131.318 202.700, 130.360 202.608, 129.711 201.449 C 129.265 200.652, 128.084 200, 127.085 200 C 124.421 200, 120.322 196.420, 119.575 193.441 C 119.217 192.017, 119.446 189.197, 120.084 187.175 C 122.688 178.923, 125.513 172, 126.277 172 C 126.723 172, 126.980 171.438, 126.848 170.750 C 126.241 167.586, 128.133 165.240, 131.777 164.637 C 137.770 163.647, 140.705 163.892, 144.493 165.698 L 148.054 167.396 147.277 173.448 C 145.816 184.825, 146.426 197.950, 148.766 205.500 C 154.625 224.402, 170.320 240.617, 189 247.069 C 197.919 250.149, 216.786 250.928, 226.033 248.597 C 233.911 246.611, 243.457 242.061, 249.628 237.350 L 254.225 233.841 258.613 236.169 C 261.026 237.449, 263.003 239.172, 263.006 239.998 C 263.021 244.136, 265.600 249.836, 268.992 253.227 C 272.476 256.711, 273.203 257, 278.482 257 C 283.617 257, 284.536 256.664, 287.500 253.700 C 294.792 246.408, 294.385 234.333, 286.586 226.534 C 282.518 222.466, 275.206 219.019, 270.572 218.985 C 266.309 218.953, 265.654 217.599, 267.834 213.326 C 273.496 202.227, 274.918 182.548, 271.071 168.525 C 269.895 164.240, 269.061 160.657, 269.217 160.564 C 273.267 158.142, 275.073 156.740, 274.665 156.332 C 274.386 156.052, 272.209 156.953, 269.829 158.334 C 266.114 160.489, 265.317 160.643, 264.208 159.420 C 263.131 158.231, 263.343 157.801, 265.487 156.824 C 266.900 156.180, 267.631 155.390, 267.110 155.068 C 266.589 154.746, 263.988 151.509, 261.331 147.874 C 252.437 135.708, 239.305 126.918, 225 123.557 C 216.870 121.647, 202.239 121.667, 195 123.600 M 258.004 129.992 C 257.334 131.245, 256.248 131.925, 255.423 131.609 C 254.640 131.309, 254 131.499, 254 132.031 C 254 133.834, 257.510 133.014, 258.829 130.903 C 259.549 129.749, 259.919 128.586, 259.650 128.317 C 259.382 128.048, 258.641 128.802, 258.004 129.992 M 198.071 129.935 C 196.859 130.702, 197.049 132.389, 199.327 141.081 C 200.803 146.713, 201.843 151.490, 201.638 151.696 C 201.432 151.901, 199.554 147.554, 197.464 142.035 C 194.846 135.122, 193.171 132.005, 192.082 132.015 C 188.094 132.054, 188.286 133.564, 193.735 145 C 196.749 151.325, 199.319 156.616, 199.448 156.757 C 199.576 156.898, 201.102 156.730, 202.840 156.382 C 204.777 155.995, 206.031 155.121, 206.079 154.125 C 206.129 153.089, 206.341 152.953, 206.662 153.750 C 206.940 154.438, 207.804 155, 208.583 155 C 209.733 155, 210 152.549, 210 142 L 210 129 207.407 129 L 204.813 129 205.526 138.500 C 205.917 143.725, 206.012 148, 205.737 148 C 205.462 148, 204.466 143.725, 203.526 138.500 C 201.843 129.156, 201.113 128.010, 198.071 129.935 M 216 142.317 L 216 155.635 221.584 157.395 C 227.009 159.105, 234.841 165.475, 237.517 170.355 C 238.471 172.094, 238.939 171.975, 245.017 168.444 C 254.258 163.076, 260 159.055, 260 157.952 C 260 156.173, 258.081 156.993, 249.785 162.315 C 239.315 169.032, 239 169.217, 239 168.639 C 239 168.376, 243.260 164.973, 248.467 161.076 C 255.039 156.158, 257.759 153.534, 257.360 152.496 C 257.044 151.673, 256.372 151, 255.866 151 C 255.360 151, 250.891 154.375, 245.935 158.500 C 240.979 162.625, 236.648 166, 236.310 166 C 235.972 166, 239.660 162.235, 244.506 157.634 C 251.348 151.137, 253.160 148.860, 252.617 147.444 C 252.031 145.917, 250.360 147.152, 242.315 155.061 L 232.712 164.500 240.950 154.307 C 248.201 145.337, 249.864 142, 247.085 142 C 246.647 142, 243.459 145.600, 240 150 C 236.541 154.400, 233.524 158, 233.296 158 C 232.720 158, 233.602 156.600, 239.683 147.871 C 243.988 141.690, 244.741 140.030, 243.651 139.125 C 242.587 138.242, 241.195 139.576, 236.997 145.504 C 234.078 149.627, 231.482 153, 231.229 153 C 230.977 153, 231.431 151.988, 232.240 150.750 C 236.415 144.357, 240.082 136.942, 239.519 136.031 C 238.272 134.013, 237.172 135.094, 232.939 142.493 C 230.581 146.613, 228.461 149.795, 228.228 149.562 C 227.996 149.329, 228.521 147.870, 229.396 146.319 C 230.271 144.769, 231.872 141.368, 232.952 138.763 C 234.879 134.120, 234.880 134.006, 233.020 133.010 C 230.751 131.796, 231.025 131.395, 226.898 142 C 222.920 152.226, 221.995 150.657, 225.446 139.533 C 227.311 133.519, 227.621 131.378, 226.708 130.799 C 224.563 129.435, 222.002 129.944, 221.923 131.750 C 221.881 132.713, 221.251 135.300, 220.523 137.500 L 219.200 141.500 219.742 135.250 C 220.254 129.359, 220.162 129, 218.142 129 C 216.060 129, 216 129.371, 216 142.317 M 294.769 131.967 C 293.393 133.049, 291.945 133.612, 291.551 133.217 C 291.156 132.823, 290.983 133.175, 291.167 134 C 291.350 134.825, 290.984 135.403, 290.353 135.284 C 289.637 135.150, 289.420 135.903, 289.776 137.284 C 290.284 139.256, 290.162 139.349, 288.673 138.128 C 287.753 137.373, 287 137.212, 287 137.771 C 287 139.084, 289.408 140.008, 290.614 139.157 C 291.127 138.796, 292.321 137.281, 293.269 135.791 C 295.463 132.343, 301.383 130.419, 305.250 131.898 C 306.762 132.477, 308 133.360, 308 133.860 C 308 135.250, 303.334 138, 300.976 138 C 299.824 138, 299.160 138.450, 299.500 139 C 299.840 139.550, 299.420 140, 298.567 140 C 297.714 140, 295.813 141.350, 294.342 143 C 291.657 146.013, 290 146.803, 290 145.067 C 290 144.554, 290.934 143.838, 292.075 143.476 C 293.217 143.114, 293.936 142.602, 293.673 142.339 C 293.142 141.809, 285.074 143.953, 283.500 145.043 C 282.950 145.424, 280.085 146.524, 277.133 147.487 C 272.986 148.840, 271.593 148.960, 271.008 148.013 C 270.424 147.068, 270.081 147.061, 269.512 147.980 C 269.106 148.637, 269.289 149.689, 269.917 150.317 C 270.995 151.395, 272.841 150.920, 285.750 146.239 C 288.661 145.184, 286.653 147.717, 282.498 150.342 C 279.199 152.426, 278 153.826, 278 155.592 C 278 158.788, 280.992 158.781, 286.469 155.571 C 289.303 153.910, 291.069 153.431, 292.056 154.056 C 292.850 154.558, 295.689 154.976, 298.364 154.985 C 303.897 155.002, 310.082 152.051, 312.615 148.184 C 314.821 144.817, 316.056 140.153, 314.926 139.454 C 314.417 139.140, 314 140.040, 314 141.456 C 314 142.987, 312.627 145.528, 310.610 147.728 C 307.519 151.102, 307.056 151.299, 305.360 149.964 C 303.614 148.590, 303.592 148.619, 305 150.437 C 306.369 152.205, 306.342 152.315, 304.698 151.699 C 303.669 151.313, 303.145 151.425, 303.476 151.961 C 304.367 153.403, 297.429 154.353, 295.332 153.075 C 293.869 152.184, 294.285 152.092, 297.395 152.618 C 300.187 153.090, 301.090 152.955, 300.586 152.138 C 300.199 151.512, 298.982 151, 297.882 151 C 296.782 151, 296.151 150.564, 296.480 150.032 C 297.306 148.696, 310.310 140.977, 310.841 141.508 C 311.078 141.744, 310.525 143.077, 309.612 144.469 C 308.700 145.861, 308.342 147, 308.816 147 C 309.291 147, 310.201 145.854, 310.839 144.453 C 314.186 137.108, 309.697 130, 301.712 130 C 298.809 130, 296.403 130.682, 294.769 131.967 M 181.576 136.321 C 179.845 137.587, 180.165 138.312, 186.837 148.257 C 190.744 154.081, 194.313 159.076, 194.768 159.357 C 195.223 159.638, 196.234 159.474, 197.014 158.991 C 198.195 158.261, 198.028 157.393, 196.015 153.807 C 189.829 142.786, 185.331 135.610, 184.418 135.306 C 183.869 135.123, 182.590 135.580, 181.576 136.321 M 173.698 141.730 C 172.227 143.201, 171.655 143.266, 169.886 142.161 C 166.130 139.815, 166.863 141.645, 171.224 145.499 C 173.576 147.578, 178.480 152.141, 182.123 155.639 C 186.225 159.579, 189.597 162, 190.980 162 C 192.556 162, 193.044 161.558, 192.638 160.499 C 191.862 158.477, 176.960 140, 176.105 140 C 175.733 140, 174.650 140.779, 173.698 141.730 M 135.431 144.888 C 136.528 146.663, 144.737 152, 146.371 152 C 147.202 152, 148.190 151.502, 148.566 150.893 C 149.019 150.160, 148.581 149.998, 147.269 150.415 C 145.917 150.844, 143.616 149.893, 140.023 147.422 C 137.128 145.431, 135.061 144.290, 135.431 144.888 M 89.456 149.125 C 81.910 150.825, 78.064 155.224, 72.950 168 C 71.740 171.025, 70.243 173.831, 69.624 174.235 C 68.900 174.708, 69.079 174.975, 70.128 174.985 C 71.207 174.995, 72.512 172.980, 73.997 169.009 C 76.838 161.412, 81.197 154.508, 84.183 152.876 C 85.457 152.179, 88.263 151.360, 90.419 151.055 C 92.574 150.750, 94.524 149.938, 94.752 149.250 C 95.215 147.853, 95.114 147.851, 89.456 149.125 M 110.874 152.236 C 109.950 153.962, 110.082 154.587, 111.606 155.701 C 114.343 157.702, 122.774 160, 127.382 160 C 132.570 160, 131.581 159.128, 120.750 154.150 C 112.080 150.166, 111.991 150.149, 110.874 152.236 M 161.861 154.252 C 157.241 161.690, 157.308 162.030, 164.245 166.500 C 176.152 174.172, 206.643 195.345, 225.982 209.371 C 243.348 221.965, 246.468 223.841, 254.702 226.639 C 262.714 229.361, 264.101 229.583, 265.156 228.313 C 266.121 227.149, 266.076 226.661, 264.936 225.939 C 263.023 224.729, 261 224.760, 261 226 C 261 226.550, 260.353 227, 259.562 227 C 257.592 227, 218.730 197.502, 203 184.067 C 193.321 175.800, 169.779 154.561, 167.595 152.125 C 166.547 150.956, 165.422 150.001, 165.095 150.002 C 164.768 150.003, 163.313 151.915, 161.861 154.252 M 316.484 155.389 C 310.993 157.705, 300.425 162.029, 293 164.999 C 277.736 171.104, 277 171.524, 277 174.122 C 277 177.454, 281.379 176.302, 304.171 166.975 C 329.743 156.510, 330 156.386, 330 154.500 C 330 150.914, 326.561 151.140, 316.484 155.389 M 107 160.079 C 107 160.673, 105.823 164.102, 104.384 167.699 C 102.243 173.049, 102.016 174.396, 103.134 175.104 C 105.381 176.528, 105.722 176.214, 107.597 171 C 108.586 168.250, 109.684 166, 110.037 166 C 110.390 166, 111.197 164.862, 111.831 163.472 C 112.870 161.191, 112.732 160.849, 110.426 159.972 C 107.216 158.752, 107 158.758, 107 160.079 M 200.974 163.750 C 198.012 165.262, 195.436 167.010, 195.250 167.633 C 195.064 168.256, 200.894 173.761, 208.206 179.865 L 221.500 190.964 231.500 190.986 C 237 190.998, 247.238 191.301, 254.250 191.658 C 265.548 192.235, 267 192.126, 267 190.707 C 267 189.483, 265.760 189.026, 261.750 188.772 L 256.500 188.440 261.750 187.591 C 265.924 186.916, 267 186.356, 267 184.859 C 267 182.825, 267.652 182.814, 252.500 185.086 C 249.200 185.580, 245.150 185.942, 243.500 185.889 C 240.503 185.793, 240.504 185.792, 244 184.946 C 245.925 184.480, 251.887 183.349, 257.250 182.432 C 265.539 181.014, 267 180.482, 267 178.882 C 267 176.538, 266.438 176.544, 254.500 179 C 244.980 180.959, 241.234 181.432, 242.099 180.568 C 242.477 180.190, 246.430 179.080, 262.250 174.911 C 265.794 173.977, 267.162 171.836, 265.049 170.530 C 264.525 170.207, 261.123 170.903, 257.488 172.077 C 248.556 174.963, 248.195 173.885, 256.944 170.452 C 260.825 168.930, 264 167.080, 264 166.342 C 264 165.604, 263.673 165, 263.274 165 C 262.579 165, 251.596 171.390, 236.383 180.646 C 228.495 185.445, 224.776 186.427, 224.237 183.851 C 224.021 182.818, 225.551 181.010, 228.330 179.015 C 233.598 175.232, 233.545 173.545, 227.985 167.985 C 220.832 160.832, 210.009 159.136, 200.974 163.750 M 115.329 163.840 C 115.032 164.753, 113.712 167.875, 112.395 170.777 C 111.078 173.680, 110 176.673, 110 177.430 C 110 178.479, 114.650 181, 116.587 181 C 117.015 181, 125.079 164.734, 124.767 164.500 C 124.620 164.390, 122.558 163.822, 120.184 163.239 C 116.458 162.324, 115.795 162.406, 115.329 163.840 M 325.667 168.667 C 324.398 169.935, 325.007 173.065, 326.645 173.694 C 328.901 174.560, 331.393 171.179, 329.861 169.332 C 328.670 167.897, 326.742 167.591, 325.667 168.667 M 155 170.836 C 155 172.757, 156.801 174, 159.582 174 C 161.893 174, 161.209 172.554, 158 170.659 C 155.087 168.938, 155 168.943, 155 170.836 M 153.400 176.162 C 152.354 177.854, 154.105 178.783, 159.649 179.475 C 169.526 180.709, 170.279 181.867, 161.250 181.937 C 153.688 181.995, 153 182.167, 153 184 C 153 185.776, 153.700 186.011, 159.250 186.100 C 170.184 186.274, 171.548 187.594, 161.697 188.466 C 153.489 189.193, 152.914 189.389, 153.197 191.373 C 153.363 192.543, 153.950 193.492, 154.500 193.482 C 156.965 193.437, 181.745 190.827, 183.876 190.388 C 186.233 189.903, 186.227 189.881, 183.058 187.543 C 181.301 186.247, 178.432 184.599, 176.682 183.881 C 174.932 183.163, 172.720 181.597, 171.766 180.400 C 170.812 179.204, 168.787 177.904, 167.266 177.511 C 161.834 176.109, 153.909 175.338, 153.400 176.162 M 98 182.927 C 98 184.358, 98.642 185, 100.073 185 C 101.504 185, 102.043 184.461, 101.812 183.261 C 101.310 180.655, 98 180.364, 98 182.927 M 123.357 186.513 C 122.181 189.577, 124.938 191, 132.051 191 C 139.190 191, 142.475 189.400, 141.351 186.471 C 140.519 184.305, 124.189 184.343, 123.357 186.513 M 278.362 186.499 C 278.040 187.339, 278.332 188.695, 279.011 189.513 C 280.057 190.773, 285.144 190.998, 312.372 190.985 C 330.043 190.976, 345.107 190.585, 345.848 190.115 C 346.590 189.645, 347.034 188.414, 346.835 187.380 C 346.491 185.590, 344.848 185.487, 312.710 185.237 C 283.204 185.007, 278.874 185.166, 278.362 186.499 M 226.010 194.250 C 227.380 195.488, 230.300 197.733, 232.500 199.240 C 234.700 200.747, 240.980 205.359, 246.457 209.490 C 251.933 213.620, 256.984 217, 257.681 217 C 258.830 217, 262.591 211.157, 261.824 210.564 C 261.646 210.426, 256.550 208.565, 250.500 206.427 C 237.278 201.757, 238.533 200.830, 252.500 204.950 C 261.667 207.654, 262.604 207.763, 263.750 206.259 C 264.438 205.356, 265 204.123, 265 203.519 C 265 202.899, 260.310 201.637, 254.250 200.627 C 241.698 198.534, 231.608 196.207, 234.561 196.085 C 235.694 196.038, 243.083 196.899, 250.980 197.997 C 258.877 199.096, 265.432 199.883, 265.545 199.747 C 265.993 199.211, 267.115 194.998, 266.817 194.972 C 263.527 194.680, 226.072 192.038, 225.010 192.022 C 223.996 192.007, 224.315 192.718, 226.010 194.250 M 182.500 194.022 C 180.300 194.457, 172.988 195.366, 166.250 196.041 C 159.512 196.716, 154 197.680, 154 198.184 C 154 198.712, 156.542 198.812, 160 198.420 C 163.300 198.047, 166 197.993, 166 198.300 C 166 198.607, 163.525 199.578, 160.500 200.457 C 155.045 202.043, 154.160 203.123, 155.970 205.986 C 156.772 207.255, 157.393 207.280, 160.205 206.162 C 166.017 203.852, 189.969 196, 191.206 196 C 193.937 196, 189.714 198.124, 174.664 204.320 C 165.954 207.906, 158.554 211.113, 158.219 211.447 C 157.885 211.782, 158.538 212.983, 159.671 214.116 L 161.732 216.176 166.116 214.001 C 172.805 210.681, 179 208.025, 179 208.476 C 179 208.698, 175.625 211.213, 171.500 214.065 C 167.375 216.917, 164 219.588, 164 220.002 C 164 220.416, 164.573 221.231, 165.274 221.812 C 166.674 222.975, 168.948 221.266, 179.411 211.192 C 185.424 205.402, 192.692 200.012, 194.497 200.004 C 195.046 200.002, 189.421 205.842, 181.997 212.983 L 168.500 225.965 170.991 227.919 C 173.255 229.694, 173.640 229.731, 175.202 228.317 C 176.147 227.462, 176.826 226.455, 176.710 226.080 C 176.595 225.705, 179.136 222.721, 182.357 219.449 C 192.056 209.598, 199.992 200.326, 199.310 199.643 C 198.956 199.289, 197.842 199, 196.833 199 C 195.825 199, 195.113 198.599, 195.250 198.109 C 195.668 196.621, 190.834 192.992, 188.597 193.115 C 187.444 193.178, 184.700 193.586, 182.500 194.022 M 198.763 204.750 C 197.845 206.262, 192.373 213.125, 186.604 220 L 176.113 232.500 178.307 234.228 C 181.605 236.826, 182.558 236.434, 185.564 231.250 C 187.079 228.637, 189.372 225.228, 190.659 223.673 C 191.947 222.119, 193 220.405, 193 219.865 C 193 218.606, 199.196 210.863, 199.756 211.422 C 200.166 211.833, 194.503 222.644, 188.822 232.294 C 185.466 237.995, 185.388 238.671, 187.991 239.497 C 190.154 240.184, 192 239.453, 192 237.911 C 192 236.847, 203.702 212.940, 204.658 212.050 C 205.577 211.194, 204.186 215.465, 199.223 228.740 C 196.706 235.472, 194.952 241.285, 195.324 241.657 C 196.500 242.834, 197.131 241.434, 202.624 225.456 C 208.341 208.829, 208.555 206.249, 204.440 203.553 C 201.233 201.451, 200.695 201.565, 198.763 204.750 M 89.709 208.624 C 89.319 209.014, 89 210.188, 89 211.233 C 89 212.716, 89.604 213.063, 91.750 212.816 C 93.728 212.589, 94.500 211.938, 94.500 210.500 C 94.500 208.491, 91.153 207.181, 89.709 208.624 M 326.359 209.507 C 326.006 210.427, 326.416 211.844, 327.286 212.714 C 329.410 214.838, 332.227 213.621, 331.820 210.754 C 331.426 207.977, 327.307 207.037, 326.359 209.507 M 136 211.169 C 133.525 212.291, 122.725 217.039, 112 221.720 C 101.275 226.402, 91.945 230.931, 91.267 231.784 C 89.869 233.544, 91.240 236, 93.621 236 C 94.377 236, 104.335 231.900, 115.748 226.889 C 127.162 221.878, 138.445 216.939, 140.823 215.913 C 144.338 214.397, 145.085 213.623, 144.823 211.774 C 144.399 208.786, 141.673 208.599, 136 211.169 M 275.011 210.487 C 274.332 211.305, 274.005 212.571, 274.285 213.299 C 274.564 214.028, 286.426 219.615, 300.645 225.715 C 320.211 234.108, 326.922 236.577, 328.248 235.867 C 330.298 234.770, 330.524 232.674, 328.750 231.222 C 327.344 230.072, 278.329 209, 277.060 209 C 276.611 209, 275.689 209.669, 275.011 210.487 M 213.425 212.443 C 213.088 213.787, 213.082 215.323, 213.412 215.858 C 213.742 216.392, 213.627 216.980, 213.156 217.165 C 212.684 217.349, 210.590 222.675, 208.502 229 C 206.414 235.325, 204.515 241.020, 204.282 241.655 C 203.682 243.293, 209.365 244.322, 214.638 243.532 C 218.176 243.001, 218.992 242.518, 218.605 241.182 C 218.338 240.257, 217.861 236.800, 217.546 233.500 L 216.972 227.500 220.427 234.750 C 223.089 240.336, 224.361 242, 225.972 242 C 229.553 242, 229.281 239.521, 224.697 230.359 C 216.338 213.653, 218.665 214.839, 228.320 232.206 C 230.371 235.894, 232.441 239.154, 232.920 239.451 C 233.400 239.747, 234.744 239.204, 235.907 238.245 L 238.023 236.500 234.961 232 C 231.517 226.938, 228.746 222, 229.349 222 C 229.569 222, 232.119 225.118, 235.017 228.930 C 240.174 235.713, 240.335 235.827, 242.643 234.315 C 243.939 233.465, 244.986 232.484, 244.969 232.135 C 244.952 231.786, 243.040 230.099, 240.719 228.386 C 220.100 213.167, 215.653 210, 214.902 210 C 214.427 210, 213.762 211.099, 213.425 212.443 M 145.250 219.689 C 146.213 219.941, 147 220.575, 147 221.098 C 147 222.314, 142.127 224.197, 140.916 223.448 C 140.412 223.137, 140 223.359, 140 223.941 C 140 225.295, 143.554 225.309, 146.066 223.965 C 148.850 222.475, 148.622 218.968, 145.750 219.116 C 144.057 219.203, 143.933 219.345, 145.250 219.689 M 154.513 228.020 C 155.453 229.542, 154.043 233, 152.482 233 C 151.722 233, 150.740 233.563, 150.300 234.252 C 149.372 235.704, 143.681 240.604, 139.559 243.500 C 137.994 244.600, 135.796 246.512, 134.676 247.750 C 133.556 248.988, 132.083 250, 131.403 250 C 130.723 250, 129.963 250.563, 129.714 251.250 C 129.354 252.245, 128.819 252.239, 127.095 251.219 C 125.149 250.069, 124.346 250.386, 119.209 254.339 C 110.027 261.405, 106.922 264.633, 107.602 266.406 C 108.988 270.017, 113.014 267.568, 134.500 250.044 C 155.640 232.802, 159.162 229.044, 155.501 227.639 C 154.561 227.278, 154.152 227.436, 154.513 228.020 M 272.486 230.015 C 271.381 231.237, 270.496 234.094, 270.242 237.265 C 269.690 244.137, 272.838 249.333, 277.847 249.818 C 286.442 250.651, 288.715 238.781, 281.368 231.434 C 277.444 227.511, 275.093 227.135, 272.486 230.015 M 298.332 239.578 C 297.999 240.445, 298.463 241.892, 299.363 242.792 C 300.836 244.264, 301.154 244.274, 302.537 242.892 C 303.406 242.022, 303.794 240.627, 303.430 239.678 C 302.616 237.556, 299.134 237.488, 298.332 239.578 M 106.970 244.536 C 105.154 246.725, 106.908 249.500, 110.109 249.500 C 112.099 249.500, 112.500 248.997, 112.500 246.500 C 112.500 244.220, 111.999 243.428, 110.412 243.202 C 109.264 243.038, 107.715 243.638, 106.970 244.536 M 311.120 244.776 C 309.790 247.261, 311.553 250, 314.482 250 C 316.006 250, 317.100 249.261, 317.515 247.952 C 318.816 243.853, 313.126 241.027, 311.120 244.776 M 236.667 249.667 C 236.300 250.033, 236 251.146, 236 252.138 C 236 254.714, 241.136 265.738, 241.674 264.317 C 241.920 263.666, 240.970 260.698, 239.561 257.721 C 236.669 251.608, 236.470 250.381, 238.250 249.662 C 238.948 249.381, 239.021 249.123, 238.417 249.079 C 237.821 249.036, 237.033 249.300, 236.667 249.667 M 221.061 255.426 C 219.307 257.540, 225.848 293.871, 228.256 295.390 C 229.542 296.201, 230.333 296.096, 231.466 294.963 C 232.803 293.625, 232.626 291.424, 229.858 274.980 C 227.733 262.355, 226.251 256.104, 225.182 255.250 C 223.178 253.649, 222.513 253.677, 221.061 255.426 M 194.362 256.500 C 192.952 260.172, 197.013 263.416, 199.680 260.748 C 201.903 258.525, 200.506 255, 197.401 255 C 196.046 255, 194.678 255.675, 194.362 256.500 M 208 279.327 C 208 300.993, 208.186 303.857, 209.627 304.410 C 213.708 305.977, 214.049 303.897, 213.768 279.113 L 213.500 255.500 210.750 255.184 L 208 254.867 208 279.327 M 164.175 258.927 C 163.594 260.594, 161.630 262.865, 159.810 263.975 C 156.404 266.051, 157.541 266.851, 161.150 264.920 C 163.091 263.881, 166.586 257.253, 165.674 256.341 C 165.431 256.097, 164.756 257.261, 164.175 258.927 M 304.075 261.409 C 302.440 263.380, 303.651 267, 305.945 267 C 308.665 267, 310.622 264.210, 309.335 262.166 C 307.922 259.922, 305.588 259.586, 304.075 261.409 M 131.040 268.452 C 128.392 271.642, 132.299 276.657, 135.416 274.070 C 137.459 272.374, 137.460 268.391, 135.418 267.607 C 133.080 266.710, 132.372 266.847, 131.040 268.452 M 285.335 269.569 C 284.401 272.002, 286.313 274.500, 289.109 274.500 C 291.099 274.500, 291.500 273.997, 291.500 271.500 C 291.500 268.969, 291.069 268.450, 288.744 268.183 C 286.868 267.967, 285.780 268.409, 285.335 269.569 M 237.853 272.423 C 233.956 280.976, 245.856 292.393, 253.942 287.861 C 257.025 286.133, 259.433 281.519, 258.467 279.189 C 257.739 277.433, 257.571 277.702, 256.576 282.221 C 256.246 283.718, 254.969 285.479, 253.738 286.135 C 251.747 287.196, 251.644 287.153, 252.807 285.742 C 253.937 284.372, 253.837 284.230, 252.068 284.692 C 250.943 284.987, 250.269 285.626, 250.570 286.114 C 251.639 287.842, 247.270 286.969, 245 285 C 243.732 283.900, 242.348 283, 241.925 283 C 240.563 283, 238.767 275.915, 239.368 272.910 C 240.076 269.370, 239.351 269.136, 237.853 272.423 M 192.484 275.096 C 191.728 279.569, 192.719 281.393, 195.604 280.838 C 196.749 280.617, 197.700 279.196, 198.176 276.994 C 199.171 272.392, 198.578 271, 195.619 271 C 193.538 271, 193.073 271.608, 192.484 275.096 M 271 277.526 C 271 279.328, 281.526 293.956, 283.241 294.538 C 288.331 296.266, 288.135 291.464, 282.820 284.207 C 277.868 277.446, 277.126 276.862, 274.957 278.023 C 273.914 278.581, 272.882 278.482, 272.153 277.753 C 271.519 277.119, 271 277.017, 271 277.526 M 144.152 280.885 C 141.923 282.297, 143.206 285.500, 146 285.500 C 147.625 285.500, 148.597 284.855, 148.835 283.620 C 149.146 282.002, 147.589 280.031, 146 280.031 C 145.725 280.031, 144.893 280.415, 144.152 280.885 M 90.750 312.080 C 88.128 313.608, 88.544 315.050, 93.876 322.916 C 98.148 329.218, 98.836 330.960, 99.428 336.968 C 99.899 341.741, 100.569 344.004, 101.634 344.413 C 105.916 346.056, 108 343.321, 108 336.058 C 108 330.681, 108.363 329.761, 113 323.401 C 118.451 315.924, 119.054 313.634, 116 312 C 113.201 310.502, 110.801 312.023, 107.355 317.477 C 105.785 319.963, 104.184 321.997, 103.798 321.998 C 103.412 321.999, 101.707 319.982, 100.010 317.515 C 98.313 315.048, 96.071 312.573, 95.028 312.015 C 92.768 310.805, 92.943 310.803, 90.750 312.080 M 130.655 312.829 C 129.352 314.269, 129.012 316.659, 129.056 324.079 C 129.087 329.260, 129.650 335.059, 130.306 336.965 C 133.154 345.234, 143.995 347.464, 150.372 341.093 C 153.494 337.973, 153.501 337.945, 153.830 325.562 C 154.141 313.846, 154.044 313.094, 152.080 312.043 C 150.591 311.246, 149.432 311.234, 148 312 C 146.215 312.955, 146 314.094, 146 322.601 C 146 333.183, 145.069 336, 141.572 336 C 138.460 336, 138 334.472, 138 324.141 C 138 312.557, 135.034 307.990, 130.655 312.829 M 175.750 312.080 C 174.208 312.978, 174 314.857, 174 327.850 C 174 337.989, 174.375 342.975, 175.200 343.800 C 176.877 345.477, 192.081 345.393, 194.404 343.694 C 195.502 342.891, 196.057 341.446, 195.845 339.944 C 195.528 337.700, 194.967 337.459, 189 337 L 182.500 336.500 182.229 325 C 182.008 315.637, 181.647 313.268, 180.288 312.250 C 178.305 310.766, 178.024 310.756, 175.750 312.080 M 241.707 312.250 C 239.964 313.551, 228 338.853, 228 341.239 C 228 341.988, 228.540 343.140, 229.200 343.800 C 231.365 345.965, 234.017 345.085, 236.133 341.500 C 238.106 338.155, 238.448 338, 243.849 338.006 C 249.084 338.012, 249.626 338.235, 251.213 341.024 C 253.263 344.625, 255.486 345.671, 257.513 343.989 C 259.911 341.999, 259.317 339.419, 253.394 326.103 C 248.399 314.876, 245.989 311, 244 311 C 243.660 311, 242.628 311.563, 241.707 312.250 M 262.200 312.200 C 260.142 314.258, 260.839 316.385, 265.948 323.636 C 270.440 330.012, 270.924 331.240, 271.198 336.975 C 271.423 341.679, 271.947 343.573, 273.250 344.391 C 276.545 346.460, 278.447 343.979, 279 336.889 C 279.438 331.273, 280.080 329.654, 284.201 323.763 C 290.163 315.242, 290.710 312.680, 286.787 311.655 C 284.190 310.976, 281.783 312.859, 278.358 318.250 C 277.047 320.313, 275.628 322, 275.203 322 C 274.779 322, 273.696 320.756, 272.798 319.234 C 270.422 315.212, 266.304 311, 264.748 311 C 264.006 311, 262.860 311.540, 262.200 312.200 M 208.628 313.528 C 207.583 316.249, 207.925 340.991, 209.035 343.066 C 210.242 345.321, 213.255 345.603, 214.905 343.615 C 215.687 342.672, 215.966 337.475, 215.777 327.365 L 215.500 312.500 212.378 312.196 C 210.211 311.985, 209.063 312.393, 208.628 313.528 M 301.667 312.667 C 300.423 313.911, 300.902 342.822, 302.180 343.611 C 302.829 344.012, 307.656 344.238, 312.907 344.113 C 322.794 343.876, 324.237 343.263, 323.756 339.500 C 323.535 337.771, 322.551 337.432, 316.500 337 C 310.181 336.549, 309.469 336.281, 309.180 334.250 C 308.895 332.239, 309.285 332, 312.859 332 C 318.950 332, 322.416 327.364, 318.066 325.035 C 317.002 324.466, 314.496 324, 312.496 324 C 309.298 324, 308.899 323.729, 309.180 321.750 C 309.467 319.733, 310.139 319.469, 315.665 319.204 C 322.353 318.884, 324.585 317.418, 323.515 314.048 C 322.916 312.159, 322.067 312, 312.599 312 C 306.953 312, 302.033 312.300, 301.667 312.667 M 242.605 327.588 C 241.750 329.816, 241.818 330, 243.500 330 C 244.325 330, 245 329.352, 245 328.559 C 245 326.443, 243.307 325.757, 242.605 327.588 M 122.580 360.250 C 118.879 368.663, 118.637 369.923, 120.576 370.667 C 121.628 371.071, 122.758 370.684, 123.505 369.662 C 125.019 367.591, 129.588 367.483, 130.362 369.500 C 131.103 371.432, 133.893 371.441, 134.633 369.515 C 134.946 368.698, 133.831 365.098, 132.154 361.515 C 128.177 353.016, 125.895 352.714, 122.580 360.250 M 141.607 356.582 C 141.273 357.452, 141 360.340, 141 363 C 141 365.660, 141.273 368.548, 141.607 369.418 C 142.582 371.960, 145.705 371.312, 146.432 368.416 L 147.080 365.832 149.113 368.416 C 150.231 369.837, 151.802 371, 152.604 371 C 154.548 371, 155.498 368.305, 154.133 366.661 C 153.343 365.709, 153.368 364.486, 154.222 362.223 C 155.234 359.542, 155.138 358.810, 153.545 357.050 C 151.172 354.427, 142.563 354.090, 141.607 356.582 M 161 357.094 C 161 358.329, 161.800 359.396, 162.951 359.698 C 164.513 360.106, 164.962 361.235, 165.201 365.354 C 165.456 369.734, 165.798 370.500, 167.500 370.500 C 169.208 370.500, 169.544 369.733, 169.802 365.250 C 169.969 362.363, 170.499 360, 170.981 360 C 172.430 360, 175.060 356.907, 174.450 355.919 C 174.138 355.414, 170.984 355, 167.441 355 C 161.571 355, 161 355.185, 161 357.094 M 180.417 356.355 C 180.131 357.101, 180.033 360.588, 180.199 364.105 L 180.500 370.500 185.589 370.797 C 189.183 371.006, 191.044 370.652, 191.925 369.590 C 193.682 367.473, 192.423 366.023, 188.691 365.864 C 186.339 365.763, 186.091 365.614, 187.750 365.294 C 189.232 365.009, 190 364.144, 190 362.759 C 190 361.603, 190.719 359.863, 191.598 358.892 C 192.477 357.921, 192.900 356.648, 192.539 356.063 C 191.544 354.453, 181.050 354.706, 180.417 356.355 M 201.246 356.154 C 199.522 357.878, 199.687 361.544, 201.571 363.429 C 202.948 364.805, 202.955 365, 201.630 365 C 199.189 365, 198.667 366.975, 200.557 369.063 C 202.803 371.545, 208.143 371.604, 210.345 369.171 C 212.395 366.906, 212.437 365.069, 210.501 362.305 C 209.351 360.663, 209.293 360.060, 210.251 359.711 C 211.191 359.370, 211.227 358.792, 210.399 357.379 C 209.086 355.140, 203.065 354.335, 201.246 356.154 M 223.250 356.250 C 221.585 358.342, 218 367.134, 218 369.127 C 218 371.401, 221.517 371.701, 222.362 369.500 C 222.678 368.675, 224.021 368, 225.346 368 C 226.671 368, 228.315 368.675, 229 369.500 C 230.923 371.818, 233 371.310, 233 368.522 C 233 367.159, 231.781 363.559, 230.292 360.522 C 227.590 355.015, 225.327 353.641, 223.250 356.250 M 239.417 356.355 C 239.131 357.101, 239.033 360.588, 239.199 364.105 C 239.463 369.722, 239.742 370.500, 241.490 370.500 C 242.910 370.500, 243.626 369.658, 243.990 367.558 L 244.500 364.617 247.185 367.808 C 250.233 371.431, 251.529 371.761, 252.850 369.250 C 253.810 367.426, 253.657 356.324, 252.659 355.325 C 251.325 353.992, 248.998 356.135, 248.973 358.719 L 248.946 361.500 246.223 358.241 C 243.398 354.860, 240.318 354.007, 239.417 356.355 M 259.630 357.250 C 258.008 363.305, 259.354 371, 262.037 371 C 264.386 371, 265.392 366.483, 264.494 359.960 C 263.966 356.115, 263.410 355, 262.023 355 C 261.012 355, 259.971 355.980, 259.630 357.250 M 273.014 360.971 C 271.356 364.256, 270 367.645, 270 368.503 C 270 370.822, 273.078 371.614, 274.505 369.662 C 276.018 367.593, 279.348 367.510, 281 369.500 C 282.923 371.818, 285 371.310, 285 368.522 C 285 364.629, 279.877 355, 277.806 355 C 276.638 355, 274.996 357.047, 273.014 360.971 M 292.667 357.065 C 291.201 359.159, 291.467 362.552, 293.181 363.612 C 293.697 363.931, 293.311 364.783, 292.323 365.506 C 290.599 366.766, 290.603 366.904, 292.418 368.910 C 294.822 371.566, 299.391 371.609, 302 369 C 304.416 366.584, 304.535 364.678, 302.401 362.544 C 301.122 361.265, 301.046 360.649, 302.023 359.472 C 303.842 357.280, 301.502 355, 297.434 355 C 295.212 355, 293.635 355.683, 292.667 357.065" stroke="none" fill="#1a0b0d" fill-rule="evenodd"/></svg>